<svg width="135" height="110" viewBox="0 0 135 110" fill="none" xmlns="http://www.w3.org/2000/svg">
<mask id="mask0_743_2363" style="mask-type:alpha" maskUnits="userSpaceOnUse" x="0" y="0" width="135" height="110">
<path d="M0 0H135V110H0V0Z" fill="black"/>
</mask>
<g mask="url(#mask0_743_2363)">
<path d="M67.5339 65.3671C50.2775 65.3671 36.2381 51.3276 36.2381 34.0712C36.2381 26.2447 39.1422 18.7523 44.4161 12.9758L52.5747 20.4247C49.1638 24.1608 47.2857 29.0073 47.2857 34.0712C47.2857 45.2362 56.3689 54.3194 67.5339 54.3194C78.6989 54.3194 87.7821 45.2362 87.7821 34.0712C87.7821 22.9062 78.6989 13.823 67.5339 13.823V2.77539C84.7903 2.77539 98.8297 16.8148 98.8297 34.0712C98.8297 51.3276 84.7903 65.3671 67.5339 65.3671Z" fill="white"/>
<path d="M26.2812 82.773H20.426V99.4688H16.2693V82.773H10.4141V79.4311H26.2812V82.773Z" fill="white"/>
<path d="M45.9326 79.4311V99.4688H41.7621V90.8378H32.9378V99.4688H28.7673V79.4311H32.9378V87.9378H41.7621V79.4311H45.9326Z" fill="white"/>
<path d="M60.7071 91.8597L58.539 85.7283C58.4101 85.406 58.272 85.0286 58.1247 84.5959C57.9866 84.1632 57.8531 83.6937 57.7242 83.1873C57.5953 83.7029 57.4572 84.1816 57.3099 84.6235C57.1718 85.0562 57.0383 85.4337 56.9094 85.7559L54.7551 91.8597H60.7071ZM67.6671 99.4688H64.4494C64.0904 99.4688 63.7958 99.3859 63.5656 99.2202C63.3447 99.0453 63.179 98.8243 63.0685 98.5573L61.7151 94.7321H53.7332L52.3799 98.5573C52.2878 98.7875 52.1267 98.9992 51.8966 99.1926C51.6664 99.3767 51.3764 99.4688 51.0266 99.4688H47.7813L55.6113 79.4311H59.8509L67.6671 99.4688Z" fill="white"/>
<path d="M86.6869 79.4311V99.4688H84.5464C84.2242 99.4688 83.9526 99.4181 83.7316 99.3168C83.5107 99.2064 83.2943 99.0222 83.0826 98.7645L73.0983 86.0597C73.1259 86.3819 73.1443 86.6995 73.1535 87.0126C73.1719 87.3256 73.1812 87.6156 73.1812 87.8826V99.4688H69.5216V79.4311H71.7035C71.8785 79.4311 72.0258 79.4403 72.1454 79.4587C72.2743 79.468 72.3894 79.5002 72.4907 79.5554C72.5919 79.6014 72.6886 79.6659 72.7807 79.7487C72.8727 79.8316 72.974 79.9421 73.0845 80.0802L83.1378 92.8402C83.101 92.4903 83.0734 92.1543 83.055 91.8321C83.0365 91.5006 83.0273 91.1876 83.0273 90.893V79.4311H86.6869Z" fill="white"/>
<path d="M110.244 89.443C110.244 90.9068 109.996 92.2648 109.498 93.5168C109.011 94.7689 108.315 95.8507 107.413 96.7621C106.52 97.6735 105.443 98.3916 104.182 98.9164C102.921 99.4319 101.521 99.6897 99.9837 99.6897C98.4463 99.6897 97.0469 99.4319 95.7856 98.9164C94.5243 98.3916 93.4426 97.6735 92.5404 96.7621C91.6382 95.8507 90.9385 94.7689 90.4413 93.5168C89.9534 92.2648 89.7094 90.9068 89.7094 89.443C89.7094 87.9792 89.9534 86.6259 90.4413 85.383C90.9385 84.131 91.6382 83.0492 92.5404 82.1378C93.4426 81.2264 94.5243 80.5129 95.7856 79.9973C97.0469 79.4726 98.4463 79.2102 99.9837 79.2102C101.521 79.2102 102.921 79.4726 104.182 79.9973C105.443 80.5129 106.52 81.231 107.413 82.1516C108.315 83.063 109.011 84.1448 109.498 85.3968C109.996 86.6397 110.244 87.9884 110.244 89.443ZM106.005 89.443C106.005 88.3935 105.867 87.4545 105.59 86.6259C105.314 85.7881 104.914 85.0792 104.389 84.4992C103.873 83.91 103.243 83.4635 102.497 83.1597C101.761 82.8467 100.923 82.6902 99.9837 82.6902C99.0447 82.6902 98.2023 82.8467 97.4566 83.1597C96.7109 83.4635 96.0756 83.91 95.5508 84.4992C95.0353 85.0792 94.6394 85.7881 94.3632 86.6259C94.087 87.4545 93.9489 88.3935 93.9489 89.443C93.9489 90.5018 94.087 91.45 94.3632 92.2878C94.6394 93.1164 95.0353 93.8207 95.5508 94.4007C96.0756 94.9806 96.7109 95.4272 97.4566 95.7402C98.2023 96.044 99.0447 96.1959 99.9837 96.1959C100.923 96.1959 101.761 96.044 102.497 95.7402C103.243 95.4272 103.873 94.9806 104.389 94.4007C104.914 93.8207 105.314 93.1164 105.59 92.2878C105.867 91.45 106.005 90.5018 106.005 89.443Z" fill="white"/>
<path d="M124.124 83.2702C123.995 83.4819 123.862 83.6384 123.724 83.7397C123.595 83.8318 123.424 83.8778 123.213 83.8778C123.01 83.8778 122.789 83.8087 122.55 83.6707C122.32 83.5234 122.048 83.3668 121.735 83.2011C121.422 83.0354 121.063 82.8835 120.658 82.7454C120.253 82.5981 119.779 82.5245 119.235 82.5245C118.278 82.5245 117.56 82.7408 117.081 83.1735C116.602 83.597 116.363 84.154 116.363 84.8445C116.363 85.2864 116.492 85.6546 116.75 85.9492C117.017 86.2346 117.362 86.4832 117.785 86.6949C118.218 86.9067 118.706 87.0954 119.249 87.2611C119.792 87.4268 120.349 87.611 120.92 87.8135C121.491 88.0068 122.048 88.237 122.591 88.504C123.134 88.771 123.618 89.107 124.041 89.5121C124.474 89.9172 124.819 90.4143 125.077 91.0035C125.344 91.5835 125.477 92.2924 125.477 93.1302C125.477 94.0416 125.316 94.8978 124.994 95.6987C124.681 96.4905 124.225 97.1856 123.627 97.784C123.029 98.3732 122.287 98.8381 121.404 99.1787C120.529 99.5194 119.535 99.6897 118.421 99.6897C117.785 99.6897 117.15 99.6253 116.515 99.4964C115.889 99.3675 115.281 99.188 114.692 98.9578C114.112 98.7276 113.564 98.4514 113.049 98.1292C112.533 97.807 112.082 97.448 111.695 97.0521L112.911 95.0911C113.012 94.9438 113.145 94.8241 113.311 94.7321C113.477 94.6308 113.652 94.5802 113.836 94.5802C114.085 94.5802 114.347 94.6722 114.623 94.8564C114.899 95.0405 115.217 95.243 115.576 95.464C115.935 95.6849 116.349 95.8875 116.819 96.0716C117.298 96.2557 117.868 96.3478 118.531 96.3478C119.498 96.3478 120.244 96.1268 120.768 95.6849C121.302 95.243 121.569 94.5848 121.569 93.7102C121.569 93.2038 121.436 92.7941 121.169 92.4811C120.911 92.1681 120.57 91.9057 120.147 91.694C119.723 91.4822 119.24 91.3027 118.697 91.1554C118.154 90.9989 117.597 90.8286 117.026 90.6445C116.455 90.4603 115.898 90.2394 115.355 89.9816C114.812 89.7238 114.328 89.3832 113.905 88.9597C113.482 88.5362 113.136 88.0114 112.869 87.3854C112.612 86.7594 112.483 85.9814 112.483 85.0516C112.483 84.3059 112.63 83.5832 112.925 82.8835C113.219 82.1838 113.652 81.5624 114.223 81.0192C114.793 80.4761 115.493 80.0387 116.322 79.7073C117.159 79.3759 118.117 79.2102 119.194 79.2102C120.4 79.2102 121.514 79.3989 122.536 79.7764C123.567 80.1446 124.437 80.6602 125.146 81.323L124.124 83.2702Z" fill="white"/>
</g>
</svg>
