<svg width="64" height="64" viewBox="0 0 64 64" fill="none" xmlns="http://www.w3.org/2000/svg">
<path d="M54.5186 64C51.5241 64 47.939 63.1378 43.9117 61.4192C36.165 58.1078 27.6066 51.9917 19.8124 44.1961C12.0181 36.4005 5.90297 27.8407 2.59215 20.0927C-0.819431 12.104 -0.847419 5.85632 2.50818 2.49736C5.86379 -0.861602 12.1132 -0.83081 20.1006 2.58134C27.8473 5.89271 36.4057 12.0088 44.1999 19.8044C51.9942 27.6 58.1093 36.1598 61.4202 43.9078C64.8317 51.8965 64.8597 58.1442 61.5041 61.5031C59.8389 63.1658 57.474 64 54.5186 64ZM9.50765 1.69121C7.01124 1.69121 5.02979 2.35461 3.69202 3.6814C0.893354 6.48053 1.05288 12.2244 4.13141 19.4349C7.36108 26.9926 13.3474 35.3648 20.9962 43.012C28.645 50.6593 37.013 56.6522 44.5694 59.8796C51.7787 62.9587 57.5188 63.1182 60.3203 60.3191C63.1217 57.52 62.9594 51.7761 59.8809 44.5656C56.6512 37.0079 50.6649 28.6357 43.0161 20.9885C35.3673 13.3412 26.9965 7.34826 19.4429 4.12086C15.6535 2.50296 12.2699 1.69121 9.50765 1.69121Z" fill="#F8572B"/>
<path d="M9.49361 64C6.54942 64 4.17615 63.1603 2.49694 61.5032C-0.861458 58.1442 -0.830672 51.8965 2.5809 43.9078C5.89173 36.1598 12.0068 27.6 19.8011 19.8045C27.5954 12.0089 36.1537 5.89275 43.9004 2.58137C51.8878 -0.830776 58.1345 -0.858768 61.4929 2.4974C64.8513 5.85356 64.8205 12.104 61.4089 20.0928C58.0981 27.8408 51.983 36.4005 44.1887 44.1961C36.3944 51.9917 27.8361 58.1078 20.0894 61.4192C16.0733 63.1379 12.4882 64 9.49361 64ZM54.5046 1.69125C51.7395 1.69125 48.3475 2.50299 44.5693 4.12089C37.0129 7.3483 28.6421 13.3384 20.9961 20.9885C13.3502 28.6385 7.36103 37.0107 4.13137 44.5656C1.05283 51.7762 0.893308 57.5172 3.69198 60.3191C6.49064 63.1211 12.2335 62.9587 19.4429 59.8797C26.9993 56.6523 35.3701 50.6621 43.0161 43.0121C50.662 35.362 56.6512 26.9898 59.8808 19.435C62.9594 12.2244 63.1189 6.48337 60.3202 3.68143C58.9909 2.35464 57.001 1.69125 54.5046 1.69125Z" fill="#F8572B"/>
</svg>
